<svg xmlns="http://www.w3.org/2000/svg" xmlns:xlink="http://www.w3.org/1999/xlink" width="90" zoomAndPan="magnify" viewBox="0 0 67.5 65.249999" height="87" preserveAspectRatio="xMidYMid meet" version="1.0"><defs><clipPath id="b6c3634133"><path d="M 24.074219 43.585938 L 66.339844 43.585938 L 66.339844 57.589844 L 24.074219 57.589844 Z M 24.074219 43.585938 " clip-rule="nonzero"/></clipPath><clipPath id="0e1adababa"><path d="M 26 0 L 50 0 L 50 44 L 26 44 Z M 26 0 " clip-rule="nonzero"/></clipPath><clipPath id="4d6cd98ccd"><path d="M 33.515625 0 L 54.730469 36.554688 L 42.542969 43.625 L 21.332031 7.070312 Z M 33.515625 0 " clip-rule="nonzero"/></clipPath><clipPath id="66570a1147"><path d="M 21.402344 7.03125 L 42.613281 43.585938 L 54.800781 36.515625 L 33.585938 -0.0390625 Z M 21.402344 7.03125 " clip-rule="nonzero"/></clipPath><clipPath id="71e143a776"><path d="M 0.136719 25 L 34 25 L 34 60 L 0.136719 60 Z M 0.136719 25 " clip-rule="nonzero"/></clipPath><clipPath id="2e16044432"><path d="M 0.140625 57.355469 L 21.101562 20.65625 L 33.332031 27.644531 L 12.371094 64.34375 Z M 0.140625 57.355469 " clip-rule="nonzero"/></clipPath><clipPath id="458e89060b"><path d="M 12.300781 64.304688 L 33.261719 27.605469 L 21.03125 20.617188 L 0.0664062 57.316406 Z M 12.300781 64.304688 " clip-rule="nonzero"/></clipPath></defs><g clip-path="url(#b6c3634133)"><path fill="#f26300" d="M 66.324219 57.589844 L 38.085938 57.589844 C 30.347656 57.589844 24.078125 51.320312 24.078125 43.585938 L 52.320312 43.585938 C 60.054688 43.585938 66.324219 49.855469 66.324219 57.589844 Z M 66.324219 57.589844 " fill-opacity="1" fill-rule="nonzero"/></g><g clip-path="url(#0e1adababa)"><g clip-path="url(#4d6cd98ccd)"><g clip-path="url(#66570a1147)"><path fill="#f26300" d="M 42.609375 43.574219 L 35.539062 31.394531 L 28.472656 19.214844 L 28.433594 19.148438 C 24.550781 12.457031 26.828125 3.886719 33.519531 0.00390625 L 47.652344 24.363281 L 47.691406 24.429688 C 51.574219 31.117188 49.296875 39.691406 42.609375 43.574219 Z M 42.609375 43.574219 " fill-opacity="1" fill-rule="nonzero"/></g></g></g><g clip-path="url(#71e143a776)"><g clip-path="url(#2e16044432)"><g clip-path="url(#458e89060b)"><path fill="#f26300" d="M 33.257812 27.617188 L 26.273438 39.84375 L 19.289062 52.074219 L 19.25 52.140625 C 15.414062 58.855469 6.859375 61.191406 0.140625 57.355469 L 7.125 45.125 L 14.109375 32.898438 L 14.148438 32.832031 C 17.984375 26.117188 26.539062 23.78125 33.257812 27.617188 Z M 33.257812 27.617188 " fill-opacity="1" fill-rule="nonzero"/></g></g></g></svg>