<svg xmlns="http://www.w3.org/2000/svg" xmlns:xlink="http://www.w3.org/1999/xlink" width="466" zoomAndPan="magnify" viewBox="0 0 349.5 93.749996" height="125" preserveAspectRatio="xMidYMid meet" version="1.0"><defs><g/><clipPath id="b07996ab98"><path d="M 24.367188 49.726562 L 67 49.726562 L 67 63.855469 L 24.367188 63.855469 Z M 24.367188 49.726562 " clip-rule="nonzero"/></clipPath><clipPath id="d58c339c94"><path d="M 26 5 L 51 5 L 51 50 L 26 50 Z M 26 5 " clip-rule="nonzero"/></clipPath><clipPath id="e26f0a3e40"><path d="M 33.890625 5.757812 L 55.289062 42.636719 L 42.996094 49.769531 L 21.597656 12.890625 Z M 33.890625 5.757812 " clip-rule="nonzero"/></clipPath><clipPath id="7fb4f73001"><path d="M 21.667969 12.851562 L 43.066406 49.726562 L 55.359375 42.59375 L 33.960938 5.71875 Z M 21.667969 12.851562 " clip-rule="nonzero"/></clipPath><clipPath id="b98ae94c9f"><path d="M 0.214844 31 L 34 31 L 34 66 L 0.214844 66 Z M 0.214844 31 " clip-rule="nonzero"/></clipPath><clipPath id="83da00b3ba"><path d="M 0.21875 63.621094 L 21.363281 26.597656 L 33.703125 33.644531 L 12.558594 70.667969 Z M 0.21875 63.621094 " clip-rule="nonzero"/></clipPath><clipPath id="129b2ae453"><path d="M 12.488281 70.628906 L 33.632812 33.605469 L 21.292969 26.558594 L 0.148438 63.578125 Z M 12.488281 70.628906 " clip-rule="nonzero"/></clipPath></defs><g clip-path="url(#b07996ab98)"><path fill="#f26300" d="M 66.988281 63.855469 L 38.5 63.855469 C 30.695312 63.855469 24.367188 57.53125 24.367188 49.726562 L 52.855469 49.726562 C 60.660156 49.726562 66.988281 56.054688 66.988281 63.855469 Z M 66.988281 63.855469 " fill-opacity="1" fill-rule="nonzero"/></g><g clip-path="url(#d58c339c94)"><g clip-path="url(#e26f0a3e40)"><g clip-path="url(#7fb4f73001)"><path fill="#f26300" d="M 43.0625 49.714844 L 35.929688 37.429688 L 28.800781 25.140625 L 28.761719 25.074219 C 24.84375 18.324219 27.140625 9.679688 33.890625 5.761719 L 41.019531 18.046875 L 48.152344 30.335938 L 48.191406 30.402344 C 52.105469 37.152344 49.808594 45.796875 43.0625 49.714844 Z M 43.0625 49.714844 " fill-opacity="1" fill-rule="nonzero"/></g></g></g><g clip-path="url(#b98ae94c9f)"><g clip-path="url(#83da00b3ba)"><g clip-path="url(#129b2ae453)"><path fill="#f26300" d="M 33.625 33.617188 L 26.582031 45.953125 L 19.535156 58.289062 L 19.496094 58.355469 C 15.625 65.132812 6.996094 67.488281 0.21875 63.617188 L 14.3125 38.945312 L 14.347656 38.878906 C 18.21875 32.105469 26.851562 29.746094 33.625 33.617188 Z M 33.625 33.617188 " fill-opacity="1" fill-rule="nonzero"/></g></g></g><g fill="#000000" fill-opacity="1"><g transform="translate(61.101395, 63.788352)"><g><path d="M 31.546875 -31.203125 L 20.0625 -31.203125 L 20.0625 0 L 12.34375 0 L 12.34375 -31.203125 L 1.03125 -31.203125 L 1.03125 -37.453125 L 31.546875 -37.453125 Z M 31.546875 -31.203125 "/></g></g></g><g fill="#000000" fill-opacity="1"><g transform="translate(91.483479, 63.788352)"><g><path d="M 15.671875 0.515625 C 11.585938 0.515625 8.265625 -0.734375 5.703125 -3.234375 C 3.140625 -5.742188 1.859375 -9.082031 1.859375 -13.25 L 1.859375 -13.96875 C 1.859375 -16.757812 2.394531 -19.257812 3.46875 -21.46875 C 4.550781 -23.675781 6.082031 -25.375 8.0625 -26.5625 C 10.039062 -27.75 12.300781 -28.34375 14.84375 -28.34375 C 18.65625 -28.34375 21.648438 -27.140625 23.828125 -24.734375 C 26.015625 -22.335938 27.109375 -18.9375 27.109375 -14.53125 L 27.109375 -11.5 L 9.390625 -11.5 C 9.628906 -9.675781 10.351562 -8.21875 11.5625 -7.125 C 12.769531 -6.03125 14.300781 -5.484375 16.15625 -5.484375 C 19.019531 -5.484375 21.257812 -6.519531 22.875 -8.59375 L 26.53125 -4.5 C 25.414062 -2.925781 23.90625 -1.695312 22 -0.8125 C 20.09375 0.0703125 17.984375 0.515625 15.671875 0.515625 Z M 14.8125 -22.328125 C 13.34375 -22.328125 12.148438 -21.828125 11.234375 -20.828125 C 10.316406 -19.835938 9.726562 -18.414062 9.46875 -16.5625 L 19.8125 -16.5625 L 19.8125 -17.15625 C 19.78125 -18.800781 19.332031 -20.070312 18.46875 -20.96875 C 17.613281 -21.875 16.394531 -22.328125 14.8125 -22.328125 Z M 14.8125 -22.328125 "/></g></g></g><g fill="#000000" fill-opacity="1"><g transform="translate(117.749342, 63.788352)"><g><path d="M 14.4375 -5.484375 C 15.800781 -5.484375 16.910156 -5.859375 17.765625 -6.609375 C 18.628906 -7.367188 19.078125 -8.375 19.109375 -9.625 L 26.09375 -9.625 C 26.070312 -7.738281 25.554688 -6.007812 24.546875 -4.4375 C 23.535156 -2.863281 22.148438 -1.644531 20.390625 -0.78125 C 18.628906 0.0820312 16.6875 0.515625 14.5625 0.515625 C 10.582031 0.515625 7.441406 -0.75 5.140625 -3.28125 C 2.847656 -5.8125 1.703125 -9.304688 1.703125 -13.765625 L 1.703125 -14.25 C 1.703125 -18.539062 2.84375 -21.960938 5.125 -24.515625 C 7.40625 -27.066406 10.535156 -28.34375 14.515625 -28.34375 C 17.992188 -28.34375 20.78125 -27.351562 22.875 -25.375 C 24.976562 -23.394531 26.050781 -20.757812 26.09375 -17.46875 L 19.109375 -17.46875 C 19.078125 -18.90625 18.628906 -20.070312 17.765625 -20.96875 C 16.910156 -21.875 15.78125 -22.328125 14.375 -22.328125 C 12.644531 -22.328125 11.335938 -21.695312 10.453125 -20.4375 C 9.578125 -19.175781 9.140625 -17.128906 9.140625 -14.296875 L 9.140625 -13.53125 C 9.140625 -10.664062 9.570312 -8.609375 10.4375 -7.359375 C 11.3125 -6.109375 12.644531 -5.484375 14.4375 -5.484375 Z M 14.4375 -5.484375 "/></g></g></g><g fill="#000000" fill-opacity="1"><g transform="translate(143.011874, 63.788352)"><g><path d="M 10.109375 -24.796875 C 12.078125 -27.160156 14.554688 -28.34375 17.546875 -28.34375 C 23.578125 -28.34375 26.640625 -24.835938 26.734375 -17.828125 L 26.734375 0 L 19.296875 0 L 19.296875 -17.625 C 19.296875 -19.21875 18.953125 -20.394531 18.265625 -21.15625 C 17.578125 -21.925781 16.4375 -22.3125 14.84375 -22.3125 C 12.664062 -22.3125 11.085938 -21.46875 10.109375 -19.78125 L 10.109375 0 L 2.671875 0 L 2.671875 -39.515625 L 10.109375 -39.515625 Z M 10.109375 -24.796875 "/></g></g></g><g fill="#000000" fill-opacity="1"><g transform="translate(170.281069, 63.788352)"><g><path d="M 13.421875 -37.453125 L 23.046875 -10.296875 L 32.625 -37.453125 L 42.75 -37.453125 L 42.75 0 L 35.015625 0 L 35.015625 -10.234375 L 35.78125 -27.90625 L 25.671875 0 L 20.375 0 L 10.296875 -27.890625 L 11.0625 -10.234375 L 11.0625 0 L 3.34375 0 L 3.34375 -37.453125 Z M 13.421875 -37.453125 "/></g></g></g><g fill="#000000" fill-opacity="1"><g transform="translate(214.220957, 63.788352)"><g><path d="M 18.984375 0 C 18.640625 -0.664062 18.390625 -1.5 18.234375 -2.5 C 16.429688 -0.488281 14.09375 0.515625 11.21875 0.515625 C 8.488281 0.515625 6.226562 -0.269531 4.4375 -1.84375 C 2.644531 -3.425781 1.75 -5.421875 1.75 -7.828125 C 1.75 -10.773438 2.84375 -13.035156 5.03125 -14.609375 C 7.21875 -16.191406 10.378906 -16.988281 14.515625 -17 L 17.9375 -17 L 17.9375 -18.59375 C 17.9375 -19.882812 17.601562 -20.914062 16.9375 -21.6875 C 16.28125 -22.457031 15.238281 -22.84375 13.8125 -22.84375 C 12.5625 -22.84375 11.578125 -22.539062 10.859375 -21.9375 C 10.148438 -21.34375 9.796875 -20.519531 9.796875 -19.46875 L 2.359375 -19.46875 C 2.359375 -21.082031 2.851562 -22.578125 3.84375 -23.953125 C 4.84375 -25.328125 6.253906 -26.398438 8.078125 -27.171875 C 9.898438 -27.953125 11.941406 -28.34375 14.203125 -28.34375 C 17.628906 -28.34375 20.347656 -27.476562 22.359375 -25.75 C 24.378906 -24.03125 25.390625 -21.613281 25.390625 -18.5 L 25.390625 -6.4375 C 25.410156 -3.789062 25.78125 -1.789062 26.5 -0.4375 L 26.5 0 Z M 12.84375 -5.171875 C 13.9375 -5.171875 14.945312 -5.414062 15.875 -5.90625 C 16.800781 -6.394531 17.488281 -7.050781 17.9375 -7.875 L 17.9375 -12.65625 L 15.15625 -12.65625 C 11.425781 -12.65625 9.441406 -11.367188 9.203125 -8.796875 L 9.1875 -8.359375 C 9.1875 -7.429688 9.507812 -6.664062 10.15625 -6.0625 C 10.8125 -5.46875 11.707031 -5.171875 12.84375 -5.171875 Z M 12.84375 -5.171875 "/></g></g></g><g fill="#000000" fill-opacity="1"><g transform="translate(240.255286, 63.788352)"><g><path d="M 18.5 -20.859375 C 17.488281 -20.992188 16.597656 -21.0625 15.828125 -21.0625 C 13.015625 -21.0625 11.171875 -20.113281 10.296875 -18.21875 L 10.296875 0 L 2.859375 0 L 2.859375 -27.828125 L 9.875 -27.828125 L 10.078125 -24.515625 C 11.578125 -27.066406 13.644531 -28.34375 16.28125 -28.34375 C 17.101562 -28.34375 17.875 -28.234375 18.59375 -28.015625 Z M 18.5 -20.859375 "/></g></g></g><g fill="#000000" fill-opacity="1"><g transform="translate(257.259656, 63.788352)"><g><path d="M 11.75 -34.671875 L 11.75 -27.828125 L 16.515625 -27.828125 L 16.515625 -22.375 L 11.75 -22.375 L 11.75 -8.484375 C 11.75 -7.460938 11.945312 -6.726562 12.34375 -6.28125 C 12.738281 -5.832031 13.492188 -5.609375 14.609375 -5.609375 C 15.429688 -5.609375 16.160156 -5.664062 16.796875 -5.78125 L 16.796875 -0.15625 C 15.335938 0.289062 13.835938 0.515625 12.296875 0.515625 C 7.078125 0.515625 4.421875 -2.117188 4.328125 -7.390625 L 4.328125 -22.375 L 0.25 -22.375 L 0.25 -27.828125 L 4.328125 -27.828125 L 4.328125 -34.671875 Z M 11.75 -34.671875 "/></g></g></g><g fill="#f26300" fill-opacity="1"><g transform="translate(272.857008, 63.788352)"><g><path d="M 3.234375 -3.65625 C 3.234375 -4.832031 3.632812 -5.789062 4.4375 -6.53125 C 5.238281 -7.269531 6.238281 -7.640625 7.4375 -7.640625 C 8.65625 -7.640625 9.660156 -7.269531 10.453125 -6.53125 C 11.253906 -5.789062 11.65625 -4.832031 11.65625 -3.65625 C 11.65625 -2.488281 11.257812 -1.539062 10.46875 -0.8125 C 9.675781 -0.0820312 8.664062 0.28125 7.4375 0.28125 C 6.21875 0.28125 5.210938 -0.0820312 4.421875 -0.8125 C 3.628906 -1.539062 3.234375 -2.488281 3.234375 -3.65625 Z M 3.234375 -3.65625 "/></g></g></g></svg>