<svg class="qodef-svg--compare-opener" xmlns="http://www.w3.org/2000/svg" width="22" height="22" viewBox="0 0 22 22"><g transform="translate(-571.888 -679.58)"><rect width="22" height="22" transform="translate(571.888 679.58)" fill="currentColor" opacity="0"></rect><path d="M676.85,692.155h-10.2l2.067-2.066a1,1,0,0,0,0-1.412.989.989,0,0,0-.705-.293h0a.992.992,0,0,0-.707.293l-3.756,3.755a.98.98,0,0,0,0,1.445l3.754,3.754a1,1,0,1,0,1.413-1.412l-2.067-2.067h10.2a1,1,0,1,0,0-2Z" transform="translate(-91.342 -0.043)" fill="currentColor"></path><path d="M685.307,688.033a.989.989,0,0,0-.317-.722l-3.757-3.755a1.023,1.023,0,0,0-1.412,0,1,1,0,0,0,0,1.412l2.066,2.066h-10.2a1,1,0,1,0,0,2h10.2l-2.067,2.067a1,1,0,0,0,1.412,1.413l3.755-3.755A.988.988,0,0,0,685.307,688.033Z" transform="translate(-91.45 -0.043)" fill="currentColor"></path></g></svg>