<svg xmlns="http://www.w3.org/2000/svg" width="30.333" height="20.417" viewBox="0 0 30.333 20.417">
<path data-name="Free Delivery Icon" d="M541.227,855.473h-4.695v-1.927a1.448,1.448,0,0,0-1.448-1.444H519.36a1.448,1.448,0,0,0-1.448,1.444v14.022a1.448,1.448,0,0,0,1.448,1.444h1.762a3.708,3.708,0,0,0,7.405,0h9.693a3.708,3.708,0,0,0,7.4,0H546.8a1.448,1.448,0,0,0,1.448-1.444v-5.1A7.016,7.016,0,0,0,541.227,855.473ZM545,866.759c-.018-.025-.035-.051-.053-.076v-.06H544.9l-.04-.052v-.058h-.045c-.025-.031-.051-.062-.078-.094l-.024-.027-.063-.071-.023-.024-.026-.028c-.03-.031-.06-.062-.092-.092l-.042-.04-.051-.047v-.048h-.055c-.033-.03-.067-.059-.1-.087l-.025-.02a3.644,3.644,0,0,0-.353-.249l-.1-.062-.043.075h0l.017-.09-.049-.027c-.023-.013-.046-.025-.07-.037l-.039.077h0l.015-.09-.061-.03-.067-.032-.015-.014h-.017l-.007,0-.309-.122-.072-.024-.249-.071-.108-.025-.241-.044c-.034-.005-.068-.009-.111-.013l-.069-.009-.137-.01-.044,0a3.461,3.461,0,0,0-.365,0l-.057,0-.128.009-.1.008,0,0-.081.01-.073.012-.1.019-.074.016-.1.023-.247.07-.075.026-.015.005-.078.027-.162.065-.079.036h0l-.28.14v0l0,0,0,.04-.031-.026-.066.04-.051.031c-.058.037-.116.075-.172.115s-.113.083-.167.126l-.024.02c-.034.027-.068.056-.1.086l-.027.022-.069.065h-.053v.049l0,0-.089.092h-.05v.053l-.06.067-.048.052v0l-.036.044H539v.057l-.019.024h0c-.022.029-.043.057-.057.078l-.022.029c-.019.026-.038.054-.057.082l-.041.061h0a3.669,3.669,0,0,0-.462,1.038h-1.81V856.625h4.695a5.86,5.86,0,0,1,5.862,5.844v5.1a.292.292,0,0,1-.292.292H545.5a3.623,3.623,0,0,0-.463-1.038v-.063Zm-4.993-1Zm1.7-.54Zm2.612.893Zm-3.59.366h0Zm2.425.014Zm-3.015-.808-.032-.026h.016l.016.026Zm-.744,2.824a2.532,2.532,0,0,1,.38-1.055l.016-.02c.018-.029.037-.056.066-.1.018-.025.035-.048.063-.083l.008-.011.048-.058.032-.037c.018-.022.037-.042.054-.061l.019-.02.061-.062.021-.02.058-.054.026-.023.051-.043h0l.1-.077.051-.04c.041-.029.083-.057.128-.085l.022-.014.039-.023.04-.023-.043-.075.062.064.274-.129.058-.023.1-.036h.073v-.022l.316-.072-.015-.086h0l.049.08c.024,0,.048-.007.073-.009l.174-.016c.087,0,.167,0,.253,0l.178.016c.024,0,.048.005.089.012l.125.023.019-.085.012.092.068.015.45.158.036-.079-.007.093.256.14a2.646,2.646,0,0,1,.26.185c.024.019.047.039.069.059l.023.02.061.058.1.1c.014.015.027.029.04.044v.054h.048l.048.058.012.015c.02.026.04.052.058.078l.01.013h0c.02.027.04.055.051.069l.009.02a2.511,2.511,0,0,1,.37.926c.008.048.016.1.022.144a2.606,2.606,0,0,1,.02.315,2.553,2.553,0,1,1-5.086-.314Zm-11.558-1.848-.065-.086-.064-.081-.038-.046-.07-.081-.061-.067-.053-.055h0l-.039-.039v-.051h-.027v-.026h-.052l-.049-.045-.047-.041c-.034-.03-.067-.059-.118-.1l-.013-.01a3.816,3.816,0,0,0-.34-.241l-.057-.036h0l-.052-.03-.089-.051-.046-.025-.094-.048-.02-.009-.051-.024-.036.079h0l.008-.092-.315-.126-.016-.005-.145-.046-.086-.025-.076-.02-.109-.025-.064-.015-.117-.02-.059-.01-.085-.011-.093-.011-.139-.01-.044,0a3.8,3.8,0,0,0-.39,0l-.031,0-.13.009-.094.011c-.029,0-.057.006-.082.011l-.076.012-.1.018-.075.016-.1.023-.337.1-.063.022-.015.006-.073.029-.142.06h0l-.035.016-.073.034-.065.033-.089.047-.049.027.046.074h0l-.069-.061-.077.045-.03.019c-.062.04-.124.08-.184.123s-.11.079-.171.129l-.022.017c-.035.028-.069.057-.109.092l-.048.041v0l-.065.061-.054.051h0l-.039.039-.076.079v0l-.062.069-.046.051v0l-.057.069h-.045v.057l-.065.087-.031.034v.009l-.041.058h-.04l-.005.07a3.65,3.65,0,0,0-.456,1.028H519.36a.293.293,0,0,1-.293-.292V853.546a.292.292,0,0,1,.293-.292h15.723a.293.293,0,0,1,.293.292V867.86h-6.971a3.641,3.641,0,0,0-.463-1.037l-.015-.026c-.02-.031-.041-.062-.067-.1Zm.019.027,0,0h0Zm-3.246-1.468Zm-.977,1.257Zm-.117.064Zm-1.219,1.966a2.513,2.513,0,0,1,.378-1.047l.018-.029c.018-.028.036-.055.048-.072l.018-.023c.019-.026.037-.051.071-.093.016-.021.033-.04.049-.06l.027-.031.034-.039h.05v-.052l.056-.057.02-.019.058-.054.026-.023c.022-.02.045-.04.078-.065l.034-.027h0a2.436,2.436,0,0,1,.218-.152l.1-.06-.045-.074h0l.065.063.561-.225.39-.073-.008-.086.033.083.127-.01c.086,0,.166,0,.252,0l.128.01.008-.086h0l.017.09.24.037.018-.085.013.092.183.047.557.242c.014.008.03.016.027.012l.027.027h.011a2.658,2.658,0,0,1,.241.17l.018.014.059.051.153.144v.052h.05l.053.057.033.04.041.05.023.029.032.043.009.071h.043l.021.031v.062h.038a2.5,2.5,0,0,1,.368,1.03,2.553,2.553,0,1,1-5.066,0Z" transform="translate(-517.912 -852.102)" fill="#fff"></path>
</svg>