<svg xmlns="http://www.w3.org/2000/svg" width="16" height="19.999" viewBox="0 0 16 19.999"><path d="M1707.461,1091.721a6.669,6.669,0,0,0-6.209-6.084c-1.419-.069-2.848-.068-4.267,0a6.647,6.647,0,0,0-6.13,5.926c-.107,1.306.1,1.54,1.4,1.542q3.435.006,6.872,0c2.36,0,4.72.006,7.081,0C1707.293,1093.1,1707.551,1092.808,1707.461,1091.721Zm-14.82-.324a4.8,4.8,0,0,1,4.591-4.1c1.281-.056,2.569-.055,3.85,0a4.7,4.7,0,0,1,4.528,4.1Z" transform="translate(-1690.831 -1073.114)"></path><path d="M1699.124,1084.78a5.833,5.833,0,1,0-5.8-5.856A5.862,5.862,0,0,0,1699.124,1084.78Zm.123-10a4.164,4.164,0,1,1-.2,8.326,4.164,4.164,0,0,1,.2-8.326Z" transform="translate(-1690.831 -1073.114)"></path></svg>