<svg data-name="Gift Cards Icon" xmlns="http://www.w3.org/2000/svg" width="23.333" height="23.333" viewBox="0 0 23.333 23.333">
<path id="Path_1389" data-name="Path 1389" d="M626.179,854.623a2.812,2.812,0,1,0,1.989.824A2.794,2.794,0,0,0,626.179,854.623Zm1.709,2.813a1.709,1.709,0,1,1-.5-1.208A1.7,1.7,0,0,1,627.887,857.436Z" transform="translate(-608.482 -851.799)" fill="#fff"></path>
<path id="Path_1390" data-name="Path 1390" d="M619.92,849.782h-8.536a1.25,1.25,0,0,0-.855.335q-.043.036-.082.075L598.238,862.4a1.325,1.325,0,0,0,0,1.871l8.456,8.456a1.325,1.325,0,0,0,1.871,0l12.21-12.209c.026-.026.051-.054.069-.076a1.256,1.256,0,0,0,.341-.861v-8.536A1.265,1.265,0,0,0,619.92,849.782Zm.16,1.263v8.536a.173.173,0,0,1-.057.122l-12.24,12.244a.223.223,0,0,1-.31,0l-8.457-8.456a.22.22,0,0,1,0-.309l12.256-12.251a.157.157,0,0,1,.11-.046h8.536A.16.16,0,0,1,620.081,851.045Z" transform="translate(-597.851 -849.782)" fill="#fff"></path>
<path id="Path_1391" data-name="Path 1391" d="M615.32,871l-8.648,1.325a.546.546,0,0,0-.362.218.551.551,0,0,0,.444.879.6.6,0,0,0,.085-.006l8.648-1.324A.552.552,0,0,0,615.32,871Z" transform="translate(-601.331 -858.618)" fill="#fff"></path>
<path id="Path_1392" data-name="Path 1392" d="M612.286,875.794a2.066,2.066,0,0,0-.611,1.4,1.9,1.9,0,0,0,1.909,1.966h.057a2.093,2.093,0,0,0,2.016-2.016,1.9,1.9,0,0,0-.555-1.412A2,2,0,0,0,612.286,875.794Zm2.267,1.324a.988.988,0,0,1-.943.943.768.768,0,0,1-.6-.232.8.8,0,0,1-.231-.6.987.987,0,0,1,.968-.943.793.793,0,0,1,.807.832Z" transform="translate(-603.61 -860.366)" fill="#fff"></path>
<path id="Path_1393" data-name="Path 1393" d="M612.531,868.115h.057A2.093,2.093,0,0,0,614.6,866.1a1.9,1.9,0,0,0-1.966-1.966,2.092,2.092,0,0,0-2.016,2.015,1.9,1.9,0,0,0,1.909,1.967Zm.738-2.647a.8.8,0,0,1,.232.6.987.987,0,0,1-.943.943.783.783,0,0,1-.6-.232.806.806,0,0,1-.232-.6.964.964,0,0,1,.289-.654.976.976,0,0,1,.68-.289A.8.8,0,0,1,613.269,865.468Z" transform="translate(-603.172 -855.761)" fill="#fff"></path>
</svg>