<svg xmlns="http://www.w3.org/2000/svg" width="19" height="18.001" viewBox="0 0 19 18.001">
<path d="M1720.27,1076.85a5.469,5.469,0,0,0-4.177-2.068,5.3,5.3,0,0,0-4.047,1.888,5.533,5.533,0,0,0-4.048-1.888,5.467,5.467,0,0,0-4.178,2.069,6.552,6.552,0,0,0-1.379,5.346c1.019,5.365,8.748,10.23,9.076,10.434a1,1,0,0,0,1.056,0c.328-.2,8.057-5.069,9.077-10.434a6.559,6.559,0,0,0-1.38-5.347Zm-.585,4.974c-.719,3.784-5.945,7.608-7.64,8.76-1.7-1.152-6.921-4.976-7.64-8.76a4.538,4.538,0,0,1,.955-3.7,3.477,3.477,0,0,1,2.638-1.344,3.67,3.67,0,0,1,3.136,2.069,1,1,0,0,0,.906.585h.006a1,1,0,0,0,.907-.58,3.677,3.677,0,0,1,3.14-2.074,3.478,3.478,0,0,1,2.637,1.343,4.54,4.54,0,0,1,.95,3.7Z" transform="translate(-1702.332 -1074.781)"></path>
</svg>