<svg xmlns="http://www.w3.org/2000/svg" width="15.998" height="15.006" viewBox="0 0 15.998 15.006"><path d="M805,648.4a4.485,4.485,0,0,0-3.44-1.723,3.953,3.953,0,0,0-3.333,1.573,3.677,3.677,0,0,0-3.333-1.573,4.482,4.482,0,0,0-3.44,1.724,5.511,5.511,0,0,0-1.136,4.455c.84,4.471,7.2,8.525,7.474,8.7a.817.817,0,0,0,.871,0c.27-.17,6.634-4.224,7.474-8.7A5.514,5.514,0,0,0,805,648.4Zm-.482,4.146c-.592,3.153-4.9,6.34-6.291,7.3-1.4-.96-5.7-4.147-6.292-7.3a3.819,3.819,0,0,1,.786-3.083,2.855,2.855,0,0,1,2.172-1.119,3.03,3.03,0,0,1,2.583,1.724.822.822,0,0,0,.746.487h0a.826.826,0,0,0,.748-.482,3.032,3.032,0,0,1,2.585-1.729,2.855,2.855,0,0,1,2.172,1.119,3.818,3.818,0,0,1,.795,3.085Z" transform="translate(-790.228 -646.676)"></path></svg>